<?xml version="1.0" encoding="utf-8" ?>
<svg baseProfile="full" height="400" version="1.1" width="400" xmlns="http://www.w3.org/2000/svg" xmlns:ev="http://www.w3.org/2001/xml-events" xmlns:xlink="http://www.w3.org/1999/xlink"><defs><filter id="glow"><feGaussianBlur in="SourceGraphic" stdDeviation="2" /></filter></defs><g transform="translate(200.0,200.0)"><circle cx="0" cy="0" fill="#2B2B2B" r="140.0" /><path d="M -112.0 70.0 Q -56.0 112.0 0 70.0 Q 56.0 112.0 112.0 70.0 L 112.0 -42.0 Q 56.0 -84.0 0 -70.0 Q -56.0 -84.0 -112.0 -42.0 Z" fill="#2B2B2B" stroke="#404040" stroke-width="2" /><circle cx="-48.0" cy="-20.0" fill="#0077FF" filter="url(#glow)" r="20.0" /><circle cx="48.0" cy="-20.0" fill="#0077FF" filter="url(#glow)" r="20.0" /><path d="M -56.0 20.0 Q -28.0 60.0 0 20.0 Q 28.0 60.0 56.0 20.0 Q 28.0 -20.0 0 -20.0 Q -28.0 -20.0 -56.0 20.0" fill="#404040" stroke="#333333" stroke-width="2" /><path d="M -42.0 20.0 Q -56.0 80.0 -49.0 100.0" fill="none" stroke="#333333" stroke-width="3" /><path d="M 42.0 20.0 Q 56.0 80.0 49.0 100.0" fill="none" stroke="#333333" stroke-width="3" /></g></svg>